# xmcd
#
# Track frame offsets:
#	150
#	16590
#	34151
#	52184
#	70018
#	86134
#	110946
#	132680
#	157824
#	173542
#	196682
#	211588
#	224948
#	240537
#
# Disc length: 3431 seconds
#
# Revision: 0
# Processed by: cddbd v1.5.2PL0 Copyright (c) Steve Scherf et al.
# Submitted via: EasyCDDAExtractor 12.0.4.1
#
DISCID=c40d650e
DTITLE=Casey Donahew Band - Live-Raw-Real In The Ville
DYEAR=2008
DGENRE=Country
TTITLE0=Your Gone
TTITLE1=No Doubt
TTITLE2=Let Me Love You
TTITLE3=Tulsa
TTITLE4=Unbreak My Heart
TTITLE5=Stockyards
TTITLE6=Fallen
TTITLE7=Shine On Me
TTITLE8=12 Guage
TTITLE9=White Trash Story
TTITLE10=Crazy
TTITLE11=Hunter S. (Rocket Ship)
TTITLE12=Ask Me To Stay
TTITLE13=Alabama Slammer
EXTD=
EXTT0=
EXTT1=
EXTT2=
EXTT3=
EXTT4=
EXTT5=
EXTT6=
EXTT7=
EXTT8=
EXTT9=
EXTT10=
EXTT11=
EXTT12=
EXTT13=
PLAYORDER=
